<svg xmlns="http://www.w3.org/2000/svg" width="760" height="440" viewBox="0 0 760 440" role="img" aria-label="Recovered GRB afterglow light curve">
  <rect width="100%" height="100%" fill="white"/>
  <text x="380.0" y="24" text-anchor="middle" font-family="Arial, sans-serif" font-size="20" font-weight="700">Recovered GRB afterglow light curve</text>
  <text x="380.0" y="405" text-anchor="middle" font-family="Arial, sans-serif" font-size="14">Time since burst, log scale (seconds)</text>
  <text x="18" y="220.0" text-anchor="middle" font-family="Arial, sans-serif" font-size="14" transform="rotate(-90 18 220.0)">Flux density, log scale (microJy)</text>
  <line x1="70" y1="380" x2="735" y2="380" stroke="#111827" stroke-width="1.5"/>
  <line x1="70" y1="40" x2="70" y2="380" stroke="#111827" stroke-width="1.5"/>
  <polyline points="70.0,39.3 735.0,373.7" fill="none" stroke="#ef4444" stroke-width="2.5" stroke-dasharray="7 5"/>
  <polyline points="70.0,40.0 143.9,76.8 217.8,114.4 291.7,149.5 365.6,187.9 439.4,224.2 513.3,264.5 587.2,297.2 661.1,330.3 735.0,380.0" fill="none" stroke="#2563eb" stroke-width="2"/>
  <circle cx="70.0" cy="40.0" r="4" fill="#2563eb" />
  <circle cx="143.9" cy="76.8" r="4" fill="#2563eb" />
  <circle cx="217.8" cy="114.4" r="4" fill="#2563eb" />
  <circle cx="291.7" cy="149.5" r="4" fill="#2563eb" />
  <circle cx="365.6" cy="187.9" r="4" fill="#2563eb" />
  <circle cx="439.4" cy="224.2" r="4" fill="#2563eb" />
  <circle cx="513.3" cy="264.5" r="4" fill="#2563eb" />
  <circle cx="587.2" cy="297.2" r="4" fill="#2563eb" />
  <circle cx="661.1" cy="330.3" r="4" fill="#2563eb" />
  <circle cx="735.0" cy="380.0" r="4" fill="#2563eb" />
  <text x="510" y="65" font-family="Arial, sans-serif" font-size="13" fill="#111827">Synthetic demo fit: α ≈ 1.11</text>
  <text x="70" y="402" font-family="Arial, sans-serif" font-size="12">300 s</text>
  <text x="680" y="402" font-family="Arial, sans-serif" font-size="12">34,777 s</text>
  <text x="20" y="45" font-family="Arial, sans-serif" font-size="12">2163 µJy</text>
  <text x="25" y="380" font-family="Arial, sans-serif" font-size="12">9.94 µJy</text>
</svg>
